<svg width="24px" height="24px" viewBox="0 0 24 24" version="1.1" xmlns="http://www.w3.org/2000/svg" xmlns:xlink="http://www.w3.org/1999/xlink">
    <defs>
        <path d="M16.7071068,11.2928932 L12.7071068,7.29289322 C12.3165825,6.90236893 11.6834175,6.90236893 11.2928932,7.29289322 C10.9023689,7.68341751 10.9023689,8.31658249 11.2928932,8.70710678 L13.5857864,11 L8,11 C7.44771525,11 7,11.4477153 7,12 C7,12.5522847 7.44771525,13 8,13 L13.5857864,13 L11.2928932,15.2928932 C10.9023689,15.6834175 10.9023689,16.3165825 11.2928932,16.7071068 C11.6834175,17.0976311 12.3165825,17.0976311 12.7071068,16.7071068 L16.7071068,12.7071068 C16.8880712,12.5261424 17,12.2761424 17,12 C17,11.7238576 16.8880712,11.4738576 16.7071068,11.2928932 Z M12,22 C6.4771525,22 2,17.5228475 2,12 C2,6.4771525 6.4771525,2 12,2 C17.5228475,2 22,6.4771525 22,12 C22,17.5228475 17.5228475,22 12,22 Z" id="path-1"></path>
    </defs>
    <g id="Icon-/-Solid-/-Right-arrow-round" stroke="none" stroke-width="1" fill="none" fill-rule="evenodd">
        <mask id="mask-2" fill="white">
            <use xlink:href="#path-1"></use>
        </mask>
        <use id="Mask" fill-opacity="0" fill="#051033" xlink:href="#path-1"></use>
        <g id="Color-/-Black-/-Black-800" mask="url(#mask-2)" fill="rgb(0, 121, 255)">
            <polygon id="Black-/-Black-800" points="0 0 24 0 24 24 0 24"></polygon>
        </g>
    </g>
</svg>
